<svg xmlns="http://www.w3.org/2000/svg" viewBox="0 0 100 100" width="100" height="100" preserveAspectRatio="xMidYMid meet" style="width: 100%; height: 100%; transform: translate3d(0px, 0px, 0px);"><defs><clipPath id="__lottie_element_81"><rect width="100" height="100" x="0" y="0"></rect></clipPath><filter id="__lottie_element_89" filterUnits="objectBoundingBox" x="0%" y="0%" width="100%" height="100%"><feComponentTransfer in="SourceGraphic"><feFuncA type="table" tableValues="1.0 0.0"></feFuncA></feComponentTransfer></filter><mask id="__lottie_element_88" mask-type="alpha"><g filter="url(#__lottie_element_89)"><rect width="100" height="100" x="0" y="0" fill="#ffffff" opacity="0"></rect><g transform="matrix(1,0,0,1,0,0)" opacity="1" style="display: block;"><g opacity="1" transform="matrix(1,0,0,1,80,65)"><path fill="rgb(255,0,0)" fill-opacity="1" d=" M0,-9.5 C5.247000217437744,-9.5 9.5,-5.247000217437744 9.5,0 C9.5,5.247000217437744 5.247000217437744,9.5 0,9.5 C-5.247000217437744,9.5 -9.5,5.247000217437744 -9.5,0 C-9.5,-5.247000217437744 -5.247000217437744,-9.5 0,-9.5z"></path></g><g opacity="1" transform="matrix(1,0,0,1,23,65)"><path fill="rgb(255,0,0)" fill-opacity="1" d=" M0,-9.5 C5.247000217437744,-9.5 9.5,-5.247000217437744 9.5,0 C9.5,5.247000217437744 5.247000217437744,9.5 0,9.5 C-5.247000217437744,9.5 -9.5,5.247000217437744 -9.5,0 C-9.5,-5.247000217437744 -5.247000217437744,-9.5 0,-9.5z"></path></g></g></g></mask></defs><g clip-path="url(#__lottie_element_81)"><g transform="matrix(1,0,0,1,0,0)" opacity="1" style="display: block;"><g opacity="1" transform="matrix(1,0,0,1,0,0)"><path stroke-linecap="round" stroke-linejoin="round" fill-opacity="0" stroke="rgb(31,33,43)" stroke-opacity="1" stroke-width="2" d=" M3,75 C3,75 6,75 6,75"></path></g></g><g transform="matrix(1,0,0,1,0,0)" opacity="1" style="display: block;"><g opacity="1" transform="matrix(1,0,0,1,0,0)"><path stroke-linecap="round" stroke-linejoin="round" fill-opacity="0" stroke="rgb(31,33,43)" stroke-opacity="1" stroke-width="2" d=" M10,75 C10,75 97,75 97,75"></path></g></g><g transform="matrix(1,0,0,1,0,0)" opacity="1" style="display: block;"><g opacity="1" transform="matrix(1,0,0,1,0,0)"><path stroke-linecap="round" stroke-linejoin="round" fill-opacity="0" stroke="rgb(31,33,43)" stroke-opacity="1" stroke-width="2" d="M0 0"></path></g></g><g mask="url(#__lottie_element_88)" style="display: block;"><g transform="matrix(1,0,0,1,0,0)" opacity="1"><g opacity="1" transform="matrix(1,0,0,1,94.5,53.5)"><path fill="rgb(253,246,170)" fill-opacity="1" d=" M1,3 C1,3 -2,3 -2,3 C-2,3 -2,-3 -2,-3 C-2,-3 1,-3 1,-3 C1.5520000457763672,-3 2,-2.552000045776367 2,-2 C2,-2 2,2 2,2 C2,2.552000045776367 1.5520000457763672,3 1,3z"></path></g><g opacity="1" transform="matrix(1,0,0,1,50,45.5)"><path fill="rgb(240,91,108)" fill-opacity="1" d=" M-18,20.5 C-18,20.5 21,20.5 21,20.5 C21,20.5 39,17.5 39,17.5 C39,17.5 41,17.5 41,17.5 C42.65700149536133,17.5 44,16.156999588012695 44,14.5 C44,14.5 44,5.5 44,5.5 C44,4.394999980926514 43.10499954223633,3.5 42,3.5 C42,3.5 42,3.497999906539917 42,3.497999906539917 C42.00299835205078,1.1920000314712524 40.33700180053711,-0.777999997138977 38.0620002746582,-1.156999945640564 C38.0620002746582,-1.156999945640564 24,-3.5 24,-3.5 C24,-3.5 16.183000564575195,-14.574000358581543 16.183000564575195,-14.574000358581543 C13.5600004196167,-18.290000915527344 9.295000076293945,-20.5 4.745999813079834,-20.5 C4.745999813079834,-20.5 -13.505999565124512,-20.5 -13.505999565124512,-20.5 C-18.253999710083008,-20.5 -22.757999420166016,-18.391000747680664 -25.79800033569336,-14.743000030517578 C-25.79800033569336,-14.743000030517578 -36,-2.5 -36,-2.5 C-40.3849983215332,0.9100000262260437 -44,4.5 -44,12.303999900817871 C-44,12.303999900817871 -44,12.5 -44,12.5 C-44,15.26099967956543 -41.76100158691406,17.5 -39,17.5 C-39,17.5 -36,17.5 -36,17.5 C-36,17.5 -18,20.5 -18,20.5z"></path></g><g opacity="1" transform="matrix(1,0,0,1,55.9640007019043,36.5)"><path fill="rgb(198,223,240)" fill-opacity="1" d=" M-9.46399974822998,7 C-9.46399974822998,7 7.250999927520752,7 7.250999927520752,7 C9.90999984741211,7 11.46399974822998,4.001999855041504 9.930999755859375,1.8289999961853027 C9.930999755859375,1.8289999961853027 6.538000106811523,-2.9790000915527344 6.538000106811523,-2.9790000915527344 C4.757999897003174,-5.5 1.8639999628067017,-7 -1.222000002861023,-7 C-1.222000002861023,-7 -9.46399974822998,-7 -9.46399974822998,-7 C-10.569000244140625,-7 -11.46399974822998,-6.105000019073486 -11.46399974822998,-5 C-11.46399974822998,-5 -11.46399974822998,5 -11.46399974822998,5 C-11.46399974822998,6.105000019073486 -10.569000244140625,7 -9.46399974822998,7z"></path></g><g opacity="1" transform="matrix(1,0,0,1,30.445999145507812,36.5)"><path fill="rgb(198,223,240)" fill-opacity="1" d=" M6.052999973297119,-7 C6.052999973297119,-7 6.047999858856201,-7 6.047999858856201,-7 C2.635999917984009,-7 -0.6010000109672546,-5.484000205993652 -2.7860000133514404,-2.861999988555908 C-2.7860000133514404,-2.861999988555908 -6.111000061035156,1.128000020980835 -6.111000061035156,1.128000020980835 C-8.053999900817871,3.4600000381469727 -6.395999908447266,7 -3.3610000610351562,7 C-3.3610000610351562,7 6.052999973297119,7 6.052999973297119,7 C7.1570000648498535,7 8.053000450134277,6.105000019073486 8.053000450134277,5 C8.053000450134277,5 8.053000450134277,-5 8.053000450134277,-5 C8.053000450134277,-6.105000019073486 7.1579999923706055,-7 6.052999973297119,-7z"></path></g><g opacity="1" transform="matrix(1,0,0,1,50,45.5)"><path stroke-linecap="butt" stroke-linejoin="round" fill-opacity="0" stroke="rgb(31,33,43)" stroke-opacity="1" stroke-width="2" d=" M30,17.5 C30,17.5 41,17.5 41,17.5 C42.65700149536133,17.5 44,16.156999588012695 44,14.5 C44,14.5 44,5.5 44,5.5 C44,4.394999980926514 43.10499954223633,3.5 42,3.5 C42,3.5 42,3.497999906539917 42,3.497999906539917 C42.00299835205078,1.1920000314712524 40.33700180053711,-0.777999997138977 38.0620002746582,-1.156999945640564 C38.0620002746582,-1.156999945640564 24,-3.5 24,-3.5 C24,-3.5 16.183000564575195,-14.574000358581543 16.183000564575195,-14.574000358581543 C13.5600004196167,-18.290000915527344 9.295000076293945,-20.5 4.745999813079834,-20.5 C4.745999813079834,-20.5 -13.505999565124512,-20.5 -13.505999565124512,-20.5 C-18.253999710083008,-20.5 -22.757999420166016,-18.391000747680664 -25.79800033569336,-14.743000030517578 C-25.79800033569336,-14.743000030517578 -36,-2.5 -36,-2.5 C-40.3849983215332,0.9100000262260437 -44,4.5 -44,12.303999900817871 C-44,12.303999900817871 -44,12.5 -44,12.5 C-44,15.26099967956543 -41.76100158691406,17.5 -39,17.5 C-39,17.5 -27,17.5 -27,17.5 C-27,17.5 -27,20.5 -27,20.5 C-27,20.5 30,20.5 30,20.5 C30,20.5 30,17.5 30,17.5z"></path></g><g opacity="1" transform="matrix(1,0,0,1,0,0)"><path stroke-linecap="round" stroke-linejoin="round" fill-opacity="0" stroke="rgb(31,33,43)" stroke-opacity="1" stroke-width="1" d=" M41.5,25.5 C41.5,25.5 41.5,65.5 41.5,65.5"></path></g><g opacity="1" transform="matrix(1,0,0,1,95.5,53.5)"><path stroke-linecap="round" stroke-linejoin="round" fill-opacity="0" stroke="rgb(31,33,43)" stroke-opacity="1" stroke-width="1" d=" M0,3 C0,3 -1,3 -1,3 C-1,3 -1,-3 -1,-3 C-1,-3 0,-3 0,-3 C0.5519999861717224,-3 1,-2.552000045776367 1,-2 C1,-2 1,2 1,2 C1,2.552000045776367 0.5519999861717224,3 0,3z"></path></g><g opacity="1" transform="matrix(1,0,0,1,0,0)"><path stroke-linecap="round" stroke-linejoin="round" fill-opacity="0" stroke="rgb(31,33,43)" stroke-opacity="1" stroke-width="2" d=" M96,60 C96,60 93,60 93,60"></path></g><g opacity="1" transform="matrix(1,0,0,1,0,0)"><path stroke-linecap="round" stroke-linejoin="round" fill-opacity="0" stroke="rgb(31,33,43)" stroke-opacity="1" stroke-width="1" d=" M41.5,49.5 C41.5,49.5 91.5,49.5 91.5,49.5"></path></g><g opacity="1" transform="matrix(1,0,0,1,22.5,51)"><path stroke-linecap="round" stroke-linejoin="round" fill-opacity="0" stroke="rgb(31,33,43)" stroke-opacity="1" stroke-width="1" d=" M16,-1.5 C16,-1.5 0.6779999732971191,-1.5 0.6779999732971191,-1.5 C-2.428999900817871,-1.5 -5.52400016784668,-1.11899995803833 -8.538000106811523,-0.36500000953674316 C-8.538000106811523,-0.36500000953674316 -16,1.5 -16,1.5"></path></g><g opacity="1" transform="matrix(1,0,0,1,0,0)"><path stroke-linecap="round" stroke-linejoin="round" fill-opacity="0" stroke="rgb(31,33,43)" stroke-opacity="1" stroke-width="2" d=" M4,58 C4,58 10,58 10,58"></path></g><g opacity="1" transform="matrix(1,0,0,1,0,0)"><path stroke-linecap="round" stroke-linejoin="round" fill-opacity="0" stroke="rgb(31,33,43)" stroke-opacity="1" stroke-width="2" d=" M9,45 C9,45 11,45 11,45"></path></g><g opacity="1" transform="matrix(1,0,0,1,0,0)"><path stroke-linecap="round" stroke-linejoin="round" fill-opacity="0" stroke="rgb(31,33,43)" stroke-opacity="1" stroke-width="1" d=" M44.5,46.5 C44.5,46.5 49.5,46.5 49.5,46.5"></path></g><g opacity="1" transform="matrix(1,0,0,1,55.9640007019043,36.5)"><path stroke-linecap="butt" stroke-linejoin="miter" fill-opacity="0" stroke-miterlimit="10" stroke="rgb(31,33,43)" stroke-opacity="1" stroke-width="1" d=" M-9.46399974822998,7 C-9.46399974822998,7 7.250999927520752,7 7.250999927520752,7 C9.90999984741211,7 11.46399974822998,4.001999855041504 9.930999755859375,1.8289999961853027 C9.930999755859375,1.8289999961853027 6.538000106811523,-2.9790000915527344 6.538000106811523,-2.9790000915527344 C4.757999897003174,-5.5 1.8639999628067017,-7 -1.222000002861023,-7 C-1.222000002861023,-7 -9.46399974822998,-7 -9.46399974822998,-7 C-10.569000244140625,-7 -11.46399974822998,-6.105000019073486 -11.46399974822998,-5 C-11.46399974822998,-5 -11.46399974822998,5 -11.46399974822998,5 C-11.46399974822998,6.105000019073486 -10.569000244140625,7 -9.46399974822998,7z"></path></g><g opacity="1" transform="matrix(1,0,0,1,30.445999145507812,36.5)"><path stroke-linecap="butt" stroke-linejoin="miter" fill-opacity="0" stroke-miterlimit="10" stroke="rgb(31,33,43)" stroke-opacity="1" stroke-width="1" d=" M6.052999973297119,-7 C6.052999973297119,-7 6.047999858856201,-7 6.047999858856201,-7 C2.635999917984009,-7 -0.6010000109672546,-5.484000205993652 -2.7860000133514404,-2.861999988555908 C-2.7860000133514404,-2.861999988555908 -6.111000061035156,1.128000020980835 -6.111000061035156,1.128000020980835 C-8.053999900817871,3.4600000381469727 -6.395999908447266,7 -3.3610000610351562,7 C-3.3610000610351562,7 6.052999973297119,7 6.052999973297119,7 C7.1570000648498535,7 8.053000450134277,6.105000019073486 8.053000450134277,5 C8.053000450134277,5 8.053000450134277,-5 8.053000450134277,-5 C8.053000450134277,-6.105000019073486 7.1579999923706055,-7 6.052999973297119,-7z"></path></g><g opacity="1" transform="matrix(1,0,0,1,0,0)"><path stroke-linecap="round" stroke-linejoin="miter" fill-opacity="0" stroke-miterlimit="10" stroke="rgb(31,33,43)" stroke-opacity="1" stroke-width="1" d=" M57.5,30 C57.5,30 57.5,39.5 57.5,39.5"></path></g><g opacity="1" transform="matrix(1,0,0,1,0,0)"><path stroke-linecap="round" stroke-linejoin="miter" fill-opacity="0" stroke-miterlimit="10" stroke="rgb(31,33,43)" stroke-opacity="1" stroke-width="1" d=" M57.5,41.5 C57.5,41.5 57.5,43.5 57.5,43.5"></path></g><g opacity="1" transform="matrix(1,0,0,1,86.16000366210938,63)"><path stroke-linecap="round" stroke-linejoin="round" fill-opacity="0" stroke="rgb(31,33,43)" stroke-opacity="1" stroke-width="1" d=" M0.1599999964237213,0.5 C0.07900000363588333,0.15600000321865082 -0.027000000700354576,-0.17900000512599945 -0.1599999964237213,-0.5"></path></g></g></g><g transform="matrix(0.9999992251396179,0.0012602271744981408,-0.0012602271744981408,0.9999992251396179,0.08193397521972656,-0.0289306640625)" opacity="1" style="display: block;"><g opacity="1" transform="matrix(1,0,0,1,23,65)"><path fill="rgb(85,95,160)" fill-opacity="1" d=" M0,-9.5 C5.247000217437744,-9.5 9.5,-5.247000217437744 9.5,0 C9.5,5.247000217437744 5.247000217437744,9.5 0,9.5 C-5.247000217437744,9.5 -9.5,5.247000217437744 -9.5,0 C-9.5,-5.247000217437744 -5.247000217437744,-9.5 0,-9.5z"></path></g><g opacity="1" transform="matrix(1,0,0,1,23,65)"><path fill="rgb(255,255,255)" fill-opacity="1" d=" M0,-7 C3.865999937057495,-7 7,-3.865999937057495 7,0 C7,3.865999937057495 3.865999937057495,7 0,7 C-3.865999937057495,7 -7,3.865999937057495 -7,0 C-7,-3.865999937057495 -3.865999937057495,-7 0,-7z"></path></g><g opacity="1" transform="matrix(1,0,0,1,23,65)"><path fill="rgb(206,204,189)" fill-opacity="1" d=" M0,-3.5 C1.9329999685287476,-3.5 3.5,-1.9329999685287476 3.5,0 C3.5,1.9329999685287476 1.9329999685287476,3.5 0,3.5 C-1.9329999685287476,3.5 -3.5,1.9329999685287476 -3.5,0 C-3.5,-1.9329999685287476 -1.9329999685287476,-3.5 0,-3.5z"></path></g><g opacity="1" transform="matrix(1,0,0,1,23,65)"><path stroke-linecap="round" stroke-linejoin="round" fill-opacity="0" stroke="rgb(31,33,43)" stroke-opacity="1" stroke-width="1" d=" M0,-3.5 C1.9329999685287476,-3.5 3.5,-1.9329999685287476 3.5,0 C3.5,1.9329999685287476 1.9329999685287476,3.5 0,3.5 C-1.9329999685287476,3.5 -3.5,1.9329999685287476 -3.5,0 C-3.5,-1.9329999685287476 -1.9329999685287476,-3.5 0,-3.5z"></path></g><g opacity="1" transform="matrix(1,0,0,1,29.159000396728516,63)"><path stroke-linecap="round" stroke-linejoin="round" fill-opacity="0" stroke="rgb(31,33,43)" stroke-opacity="1" stroke-width="1" d=" M0.1599999964237213,0.5 C0.07900000363588333,0.15600000321865082 -0.026000000536441803,-0.17900000512599945 -0.1599999964237213,-0.5"></path></g><g opacity="1" transform="matrix(1,0,0,1,26.579999923706055,59.75)"><path stroke-linecap="round" stroke-linejoin="round" fill-opacity="0" stroke="rgb(31,33,43)" stroke-opacity="1" stroke-width="1" d=" M1.0789999961853027,0.75 C0.4690000116825104,0.11599999666213989 -0.2540000081062317,-0.4059999883174896 -1.0789999961853027,-0.75"></path></g><g opacity="1" transform="matrix(1,0,0,1,21.5,65)"><path stroke-linecap="round" stroke-linejoin="round" fill-opacity="0" stroke="rgb(31,33,43)" stroke-opacity="1" stroke-width="1" d=" M2,-6.474999904632568 C1.8339999914169312,-6.48799991607666 1.6690000295639038,-6.5 1.5,-6.5 C-2.0899999141693115,-6.5 -5,-3.5899999141693115 -5,0 C-5,3.5889999866485596 -2.0899999141693115,6.5 1.5,6.5 C2.7899999618530273,6.5 3.990000009536743,6.124000072479248 5,5.473999977111816"></path></g><g opacity="1" transform="matrix(1,0,0,1,23,65)"><path stroke-linecap="round" stroke-linejoin="round" fill-opacity="0" stroke="rgb(31,33,43)" stroke-opacity="1" stroke-width="1" d=" M0,-9.5 C5.247000217437744,-9.5 9.5,-5.247000217437744 9.5,0 C9.5,5.247000217437744 5.247000217437744,9.5 0,9.5 C-5.247000217437744,9.5 -9.5,5.247000217437744 -9.5,0 C-9.5,-5.247000217437744 -5.247000217437744,-9.5 0,-9.5z"></path></g></g><g transform="matrix(0.9999992251396179,0.0012602271744981408,-0.0012602271744981408,0.9999992251396179,0.08197784423828125,-0.10076904296875)" opacity="1" style="display: block;"><g opacity="1" transform="matrix(1,0,0,1,80,65)"><path fill="rgb(85,95,160)" fill-opacity="1" d=" M0,-9.5 C5.247000217437744,-9.5 9.5,-5.247000217437744 9.5,0 C9.5,5.247000217437744 5.247000217437744,9.5 0,9.5 C-5.247000217437744,9.5 -9.5,5.247000217437744 -9.5,0 C-9.5,-5.247000217437744 -5.247000217437744,-9.5 0,-9.5z"></path></g><g opacity="1" transform="matrix(1,0,0,1,80,65)"><path fill="rgb(255,255,255)" fill-opacity="1" d=" M0,-7 C3.865999937057495,-7 7,-3.865999937057495 7,0 C7,3.865999937057495 3.865999937057495,7 0,7 C-3.865999937057495,7 -7,3.865999937057495 -7,0 C-7,-3.865999937057495 -3.865999937057495,-7 0,-7z"></path></g><g opacity="1" transform="matrix(1,0,0,1,80,65)"><path fill="rgb(206,204,189)" fill-opacity="1" d=" M0,-3.5 C1.9329999685287476,-3.5 3.5,-1.9329999685287476 3.5,0 C3.5,1.9329999685287476 1.9329999685287476,3.5 0,3.5 C-1.9329999685287476,3.5 -3.5,1.9329999685287476 -3.5,0 C-3.5,-1.9329999685287476 -1.9329999685287476,-3.5 0,-3.5z"></path></g><g opacity="1" transform="matrix(1,0,0,1,80,65)"><path stroke-linecap="round" stroke-linejoin="round" fill-opacity="0" stroke="rgb(31,33,43)" stroke-opacity="1" stroke-width="1" d=" M0,-3.5 C1.9329999685287476,-3.5 3.5,-1.9329999685287476 3.5,0 C3.5,1.9329999685287476 1.9329999685287476,3.5 0,3.5 C-1.9329999685287476,3.5 -3.5,1.9329999685287476 -3.5,0 C-3.5,-1.9329999685287476 -1.9329999685287476,-3.5 0,-3.5z"></path></g><g opacity="1" transform="matrix(1,0,0,1,80,65)"><path stroke-linecap="round" stroke-linejoin="round" fill-opacity="0" stroke="rgb(31,33,43)" stroke-opacity="1" stroke-width="1" d=" M0,-9.5 C5.247000217437744,-9.5 9.5,-5.247000217437744 9.5,0 C9.5,5.247000217437744 5.247000217437744,9.5 0,9.5 C-5.247000217437744,9.5 -9.5,5.247000217437744 -9.5,0 C-9.5,-5.247000217437744 -5.247000217437744,-9.5 0,-9.5z"></path></g><g opacity="1" transform="matrix(1,0,0,1,83.58000183105469,59.75)"><path stroke-linecap="round" stroke-linejoin="round" fill-opacity="0" stroke="rgb(31,33,43)" stroke-opacity="1" stroke-width="1" d=" M1.0800000429153442,0.75 C0.4699999988079071,0.11599999666213989 -0.2540000081062317,-0.4059999883174896 -1.0789999961853027,-0.75"></path></g><g opacity="1" transform="matrix(1,0,0,1,78.5,65)"><path stroke-linecap="round" stroke-linejoin="round" fill-opacity="0" stroke="rgb(31,33,43)" stroke-opacity="1" stroke-width="1" d=" M2,-6.474999904632568 C1.8339999914169312,-6.48799991607666 1.6690000295639038,-6.5 1.5,-6.5 C-2.0899999141693115,-6.5 -5,-3.5899999141693115 -5,0 C-5,3.5889999866485596 -2.0899999141693115,6.5 1.5,6.5 C2.7899999618530273,6.5 3.990000009536743,6.124000072479248 5,5.473999977111816"></path></g></g></g></svg>