<svg version="1.1" xmlns="http://www.w3.org/2000/svg" xmlns:xlink="http://www.w3.org/1999/xlink" viewBox="0 0 172 172"><g fill="none" fill-rule="nonzero" stroke="none" stroke-width="1" stroke-linecap="butt" stroke-linejoin="miter" stroke-miterlimit="10" stroke-dasharray="" stroke-dashoffset="0" font-family="none" font-weight="none" font-size="none" text-anchor="none" style="mix-blend-mode: normal"><path d="M0,172v-172h172v172z" fill="none"></path><g fill="#1d2a30"><path d="M154.62823,80.90673c-2.80928,-37.83986 -35.89072,-66.33436 -73.72988,-63.52508c-37.5334,2.81483 -66.28509,35.45684 -63.52578,73.73058c2.70507,36.06918 32.67736,63.69724 68.45566,63.69724c40.5552,0 71.65905,-34.2666 68.8,-73.90275zM109.27806,97.18954h-12.09725v12.09725c0,6.13471 -4.98797,11.12268 -11.18042,11.12268c-6.13436,0 -11.12233,-4.98797 -11.12233,-11.12268v-12.09725h-12.09725c-6.13436,0 -11.18042,-5.04536 -11.18042,-11.18006c0,-6.1347 5.04606,-11.18007 11.18042,-11.18007h12.09725v-12.03986c0,-6.13471 4.98797,-11.18007 11.12233,-11.18007c6.19245,0 11.18042,5.04536 11.18042,11.18007v12.03986h12.09725c6.13506,0 11.12233,5.04536 11.12233,11.18007c0,6.13471 -4.98727,11.18006 -11.12233,11.18006z"></path></g></g></svg>